<svg xmlns="http://www.w3.org/2000/svg" xmlns:xlink="http://www.w3.org/1999/xlink" id="Capa_1" viewBox="0 0 340 100"><defs><style>      .st0 {        fill: none;      }      .st1 {        clip-path: url(#clippath-1);      }      .st2 {        fill: #111c4e;      }      .st3 {        fill: #a2a9ad;      }      .st4 {        clip-path: url(#clippath);      }      .st5 {        fill: #4ac1e0;      }    </style><clipPath id="clippath"><circle class="st0" cx="49.2" cy="49.4" r="25.5"></circle></clipPath><clipPath id="clippath-1"><circle class="st0" cx="45" cy="49" r="21.2"></circle></clipPath></defs><g><path class="st2" d="M143.5,57.7l-6-2.8c-.4-.2-.9-.1-1.1.4-2.4,5.6-7.3,9.8-14.2,9.8s-14.8-6.9-14.8-15.3h0c0-8.4,6.6-15.2,14.8-15.2s11.6,3.8,13.9,9.3c.2.5.7.5,1.1.4l6-2.8c.4-.2.6-.6.4-1-3.4-7.7-11.6-13.7-21.3-13.7s-23.3,10.4-23.3,23.1,10.4,23.2,23.3,23.2,18.1-6,21.7-14.2c.2-.4,0-.8-.4-1Z"></path><path class="st2" d="M334.6,37.9c-1.3-.5-2.8-.8-5-.7-6.3.2-7.6,3-8.2,4.1.3-.5.4-1.7.4-1.9v-1.1c0-.4-.3-.7-.7-.7h-6c-.4,0-.7.3-.7.7v33c0,.5.3.7.7.7h6.6c.4,0,.7-.2.7-.7v-18.1c0-6.4,3.8-8.7,7.6-8.7s1.9,0,2.7.3c.4,0,.7-.1.8-.6l1.4-5.4c0-.3,0-.6-.4-.8Z"></path><g><path class="st5" d="M209.3,37.1c-8.5.1-10.4,4.9-10.4,4.9.3-.7.5-1.4.5-1.8s0-.7,0-1v-.6c0-.4-.3-.7-.7-.7h-6c-.4,0-.7.3-.7.7v33c0,.5.3.7.7.7h6.6c.4,0,.7-.2.7-.7v-18.9c0-5.1,3.7-8.2,8.3-8.2s7.1,1.8,7.1,7.2v19.9c0,.5.3.7.7.7h6.6c.4,0,.7-.2.7-.7v-20.2c0-8.5-5.5-14.4-14.2-14.3Z"></path><path class="st2" d="M215.5,51.7v5.7c0,6.2,3,9.5,8,11.6v-17.6c0-8.5-5.5-14.4-14.2-14.3-8.5.1-10.4,4.9-10.4,4.9.3-.7.5-1.4.5-1.8,0-.3,0-.7,0-1v-.6c0-.4-.3-.7-.7-.7h-6c-.4,0-.7.3-.7.7v33c0,.5.3.7.7.7h6.6c.4,0,.7-.2.7-.7v-18.9c0-5.1,3.7-8.2,8.3-8.2s7.1,1.8,7.1,7.2Z"></path><path class="st5" d="M245.7,72.2c8.5-.1,10.4-4.9,10.4-4.9-.3.7-.5,1.4-.5,1.8s0,.7,0,1v.6c0,.4.3.7.7.7h6c.4,0,.7-.3.7-.7v-33c0-.5-.3-.7-.7-.7h-6.6c-.4,0-.7.2-.7.7v18.9c0,5.1-3.7,8.2-8.3,8.2s-7.1-1.8-7.1-7.2v-19.9c0-.5-.3-.7-.7-.7h-6.6c-.4,0-.7.2-.7.7v20.2c0,8.5,5.5,14.4,14.2,14.3Z"></path><path class="st2" d="M239.5,57.6v-5.7c0-6.2-3-9.5-8-11.6v17.6c0,8.5,5.5,14.4,14.2,14.3,8.5-.1,10.4-4.9,10.4-4.9-.3.7-.5,1.4-.5,1.8,0,.3,0,.7,0,1v.6c0,.4.3.7.7.7h6c.4,0,.7-.3.7-.7v-33c0-.5-.3-.7-.7-.7h-6.6c-.4,0-.7.2-.7.7v18.9c0,5.1-3.7,8.2-8.3,8.2s-7.1-1.8-7.1-7.2Z"></path></g><path class="st2" d="M167,36.9c-9.9,0-18,8-18,17.8s8.2,18,18,18,18-8.1,18-18-8.2-17.8-18-17.8ZM167,65.4c-5.6,0-10-4.9-10-10.6h0c0-5.6,4.4-10.5,10-10.5s10,4.9,10,10.5-4.4,10.6-10,10.6Z"></path><path class="st2" d="M305.5,37.6h-6.6c-.4,0-.7.3-.7.7v1.4c1.1.8,2.1,1.7,3,2.7.2.3.3.6.1.8-1.3-1.5-2.9-2.9-4.6-3.9h0c-.1-.1-.2-.2-.4-.2-.5-.3-1-.5-1.5-.7-.6-.2-1.1-.4-1.7-.6-1.7-.5-3.5-.8-5.3-.8-9.8,0-18,8-18,17.8s8.2,18,18,18,6.9-.8,10.3-3.3v1.8c0,.4.3.7.7.7h6.6c.4,0,.7-.3.7-.7v-33c0-.4-.3-.7-.7-.7ZM298,54.8c0,5.7-4.4,10.6-10,10.6s-10-4.9-10-10.6,4.4-10.5,10-10.5,10,4.9,10,10.5h0Z"></path></g><g><rect class="st3" x="68" y="43.4" width="1.8" height="28.9" transform="translate(-7.4 105.5) rotate(-72)"></rect><rect class="st3" x="66.5" y="47.1" width="1.8" height="28.9" transform="translate(-18 93.6) rotate(-62.9)"></rect><rect class="st3" x="64.4" y="50.5" width="1.8" height="28.9" transform="translate(-25.6 79.5) rotate(-53.9)"></rect><rect class="st3" x="61.8" y="53.5" width="1.8" height="28.9" transform="translate(-29.7 64.3) rotate(-45)"></rect><rect class="st3" x="58.8" y="56.1" width="1.8" height="28.9" transform="translate(-30.1 48.6) rotate(-36.1)"></rect><rect class="st3" x="55.4" y="58.2" width="1.8" height="28.9" transform="translate(-26.9 33.6) rotate(-27.1)"></rect><rect class="st3" x="51.7" y="59.7" width="1.8" height="28.9" transform="translate(-20.3 19.9) rotate(-18)"></rect><rect class="st3" x="47.9" y="60.6" width="1.8" height="28.9" transform="translate(-11.1 8.5) rotate(-8.9)"></rect><rect class="st3" x="43.9" y="60.9" width="1.8" height="28.9"></rect><rect class="st3" x="26.4" y="74.1" width="28.9" height="1.8" transform="translate(-39.7 103.7) rotate(-81.1)"></rect><rect class="st3" x="22.5" y="73.2" width="28.9" height="1.8" transform="translate(-45 86.4) rotate(-72)"></rect><rect class="st3" x="18.8" y="71.7" width="28.9" height="1.8" transform="translate(-46.5 69.2) rotate(-62.9)"></rect><rect class="st3" x="15.5" y="69.6" width="28.9" height="1.8" transform="translate(-44.7 53.2) rotate(-54)"></rect><rect class="st3" x="12.4" y="67" width="28.9" height="1.8" transform="translate(-40.2 38.9) rotate(-45)"></rect><rect class="st3" x="9.8" y="64" width="28.9" height="1.8" transform="translate(-33.5 26.7) rotate(-36)"></rect><rect class="st3" x="7.8" y="60.6" width="28.9" height="1.8" transform="translate(-25.6 16.8) rotate(-27.1)"></rect><rect class="st3" x="6.2" y="56.9" width="28.9" height="1.8" transform="translate(-16.9 9.2) rotate(-18)"></rect><rect class="st3" x="5.3" y="53.1" width="28.9" height="1.8" transform="translate(-8.1 3.7) rotate(-8.9)"></rect><rect class="st3" x="5" y="49.1" width="28.9" height="1.8"></rect><rect class="st3" x="18.8" y="31.6" width="1.8" height="28.9" transform="translate(-28.8 58.4) rotate(-81.1)"></rect><rect class="st3" x="19.8" y="27.7" width="1.8" height="28.9" transform="translate(-25.8 48.8) rotate(-72)"></rect><rect class="st3" x="21.3" y="24" width="1.8" height="28.9" transform="translate(-22.2 40.7) rotate(-62.9)"></rect><rect class="st3" x="23.4" y="20.7" width="1.8" height="28.9" transform="translate(-18.4 34.1) rotate(-53.9)"></rect><rect class="st3" x="26" y="17.6" width="1.8" height="28.9" transform="translate(-14.8 28.4) rotate(-45)"></rect><rect class="st3" x="29" y="15" width="1.8" height="28.9" transform="translate(-11.6 23.2) rotate(-36.1)"></rect><rect class="st3" x="32.4" y="13" width="1.8" height="28.9" transform="translate(-8.8 18.1) rotate(-27.1)"></rect><rect class="st3" x="36" y="11.4" width="1.8" height="28.9" transform="translate(-6.2 12.7) rotate(-18)"></rect><rect class="st3" x="39.9" y="10.5" width="1.8" height="28.9" transform="translate(-3.4 6.6) rotate(-8.9)"></rect><rect class="st3" x="43.9" y="10.2" width="1.8" height="28.9"></rect><rect class="st3" x="34.3" y="24" width="28.9" height="1.8" transform="translate(16.6 69.3) rotate(-81.1)"></rect><rect class="st3" x="38.2" y="25" width="28.9" height="1.8" transform="translate(11.8 67.9) rotate(-72)"></rect><rect class="st3" x="41.9" y="26.5" width="28.9" height="1.8" transform="translate(6.3 65.1) rotate(-62.9)"></rect><rect class="st3" x="45.3" y="28.6" width="28.9" height="1.8" transform="translate(.7 60.4) rotate(-54)"></rect><rect class="st3" x="48.3" y="31.2" width="28.9" height="1.8" transform="translate(-4.3 53.8) rotate(-45)"></rect><rect class="st3" x="50.9" y="34.2" width="28.9" height="1.8" transform="translate(-8.1 45.2) rotate(-36)"></rect><rect class="st3" x="53" y="37.6" width="28.9" height="1.8" transform="translate(-10.1 34.9) rotate(-27.1)"></rect></g><g class="st4"><g><rect class="st5" x="67.8" y="43.4" width="2.3" height="28.9" transform="translate(-7.4 105.5) rotate(-72)"></rect><rect class="st5" x="66.3" y="47.1" width="2.3" height="28.9" transform="translate(-18 93.6) rotate(-62.9)"></rect><rect class="st5" x="64.2" y="50.5" width="2.3" height="28.9" transform="translate(-25.6 79.5) rotate(-53.9)"></rect><rect class="st5" x="61.6" y="53.5" width="2.3" height="28.9" transform="translate(-29.7 64.3) rotate(-45)"></rect><rect class="st5" x="58.6" y="56.1" width="2.3" height="28.9" transform="translate(-30.1 48.6) rotate(-36.1)"></rect><rect class="st5" x="55.2" y="58.2" width="2.3" height="28.9" transform="translate(-26.9 33.6) rotate(-27.1)"></rect><rect class="st5" x="51.5" y="59.7" width="2.3" height="28.9" transform="translate(-20.3 19.9) rotate(-18)"></rect><rect class="st5" x="47.6" y="60.6" width="2.3" height="28.9" transform="translate(-11.1 8.5) rotate(-8.9)"></rect><rect class="st5" x="43.7" y="60.9" width="2.3" height="28.9"></rect><rect class="st5" x="26.4" y="73.9" width="28.9" height="2.3" transform="translate(-39.7 103.7) rotate(-81.1)"></rect><rect class="st5" x="22.5" y="73" width="28.9" height="2.3" transform="translate(-45 86.4) rotate(-72)"></rect><rect class="st5" x="18.8" y="71.5" width="28.9" height="2.3" transform="translate(-46.5 69.2) rotate(-63)"></rect><rect class="st5" x="15.5" y="69.4" width="28.9" height="2.3" transform="translate(-44.7 53.2) rotate(-53.9)"></rect><rect class="st5" x="12.4" y="66.8" width="28.9" height="2.3" transform="translate(-40.2 38.9) rotate(-45)"></rect><rect class="st5" x="9.8" y="63.8" width="28.9" height="2.3" transform="translate(-33.5 26.7) rotate(-36)"></rect><rect class="st5" x="7.8" y="60.4" width="28.9" height="2.3" transform="translate(-25.6 16.8) rotate(-27.1)"></rect><rect class="st5" x="6.2" y="56.7" width="28.9" height="2.3" transform="translate(-16.9 9.2) rotate(-18)"></rect><rect class="st5" x="5.3" y="52.8" width="28.9" height="2.3" transform="translate(-8.1 3.7) rotate(-8.9)"></rect><rect class="st5" x="5" y="48.9" width="28.9" height="2.3"></rect><rect class="st5" x="18.6" y="31.6" width="2.3" height="28.9" transform="translate(-28.8 58.4) rotate(-81.1)"></rect><rect class="st5" x="19.5" y="27.7" width="2.3" height="28.9" transform="translate(-25.8 48.8) rotate(-72)"></rect><rect class="st5" x="21.1" y="24" width="2.3" height="28.9" transform="translate(-22.2 40.7) rotate(-62.9)"></rect><rect class="st5" x="23.1" y="20.7" width="2.3" height="28.9" transform="translate(-18.4 34.1) rotate(-53.9)"></rect><rect class="st5" x="25.7" y="17.6" width="2.3" height="28.9" transform="translate(-14.8 28.4) rotate(-45)"></rect><rect class="st5" x="28.8" y="15" width="2.3" height="28.9" transform="translate(-11.6 23.2) rotate(-36.1)"></rect><rect class="st5" x="32.1" y="13" width="2.3" height="28.9" transform="translate(-8.8 18.1) rotate(-27.1)"></rect><rect class="st5" x="35.8" y="11.4" width="2.3" height="28.9" transform="translate(-6.2 12.7) rotate(-18)"></rect><rect class="st5" x="39.7" y="10.5" width="2.3" height="28.9" transform="translate(-3.4 6.6) rotate(-8.9)"></rect><rect class="st5" x="43.7" y="10.2" width="2.3" height="28.9"></rect><rect class="st5" x="34.3" y="23.8" width="28.9" height="2.3" transform="translate(16.6 69.3) rotate(-81.1)"></rect><rect class="st5" x="38.2" y="24.7" width="28.9" height="2.3" transform="translate(11.8 67.9) rotate(-72)"></rect><rect class="st5" x="41.9" y="26.3" width="28.9" height="2.3" transform="translate(6.3 65.1) rotate(-62.9)"></rect><rect class="st5" x="45.3" y="28.3" width="28.9" height="2.3" transform="translate(.7 60.4) rotate(-54)"></rect><rect class="st5" x="48.3" y="30.9" width="28.9" height="2.3" transform="translate(-4.3 53.8) rotate(-45)"></rect><rect class="st5" x="50.9" y="34" width="28.9" height="2.3" transform="translate(-8.1 45.2) rotate(-36)"></rect><rect class="st5" x="53" y="37.3" width="28.9" height="2.3" transform="translate(-10.1 34.9) rotate(-27.1)"></rect></g></g><g class="st1"><g><rect class="st2" x="67.6" y="43.4" width="2.7" height="28.9" transform="translate(-7.4 105.5) rotate(-72)"></rect><rect class="st2" x="66" y="47.1" width="2.7" height="28.9" transform="translate(-18 93.6) rotate(-62.9)"></rect><rect class="st2" x="64" y="50.5" width="2.7" height="28.9" transform="translate(-25.6 79.5) rotate(-53.9)"></rect><rect class="st2" x="61.4" y="53.5" width="2.7" height="28.9" transform="translate(-29.7 64.3) rotate(-45)"></rect><rect class="st2" x="58.4" y="56.1" width="2.7" height="28.9" transform="translate(-30.1 48.6) rotate(-36.1)"></rect><rect class="st2" x="55" y="58.2" width="2.7" height="28.9" transform="translate(-26.9 33.6) rotate(-27.1)"></rect><rect class="st2" x="51.3" y="59.7" width="2.7" height="28.9" transform="translate(-20.3 19.9) rotate(-18)"></rect><rect class="st2" x="47.4" y="60.6" width="2.7" height="28.9" transform="translate(-11.1 8.5) rotate(-8.9)"></rect><rect class="st2" x="43.4" y="60.9" width="2.7" height="28.9"></rect><rect class="st2" x="26.4" y="73.7" width="28.9" height="2.7" transform="translate(-39.7 103.7) rotate(-81.1)"></rect><rect class="st2" x="22.5" y="72.8" width="28.9" height="2.7" transform="translate(-45 86.4) rotate(-72)"></rect><rect class="st2" x="18.8" y="71.2" width="28.9" height="2.7" transform="translate(-46.5 69.2) rotate(-63)"></rect><rect class="st2" x="15.5" y="69.2" width="28.9" height="2.7" transform="translate(-44.7 53.2) rotate(-53.9)"></rect><rect class="st2" x="12.4" y="66.6" width="28.9" height="2.7" transform="translate(-40.2 38.9) rotate(-45)"></rect><rect class="st2" x="9.8" y="63.6" width="28.9" height="2.7" transform="translate(-33.6 26.7) rotate(-36)"></rect><rect class="st2" x="7.8" y="60.2" width="28.9" height="2.7" transform="translate(-25.6 16.8) rotate(-27.1)"></rect><rect class="st2" x="6.2" y="56.5" width="28.9" height="2.7" transform="translate(-16.9 9.2) rotate(-18)"></rect><rect class="st2" x="5.3" y="52.6" width="28.9" height="2.7" transform="translate(-8.1 3.7) rotate(-8.9)"></rect><rect class="st2" x="5" y="48.6" width="28.9" height="2.7"></rect><rect class="st2" x="18.4" y="31.6" width="2.7" height="28.9" transform="translate(-28.8 58.4) rotate(-81.1)"></rect><rect class="st2" x="19.3" y="27.7" width="2.7" height="28.9" transform="translate(-25.8 48.8) rotate(-72)"></rect><rect class="st2" x="20.8" y="24" width="2.7" height="28.9" transform="translate(-22.2 40.7) rotate(-62.9)"></rect><rect class="st2" x="22.9" y="20.7" width="2.7" height="28.9" transform="translate(-18.4 34.1) rotate(-53.9)"></rect><rect class="st2" x="25.5" y="17.6" width="2.7" height="28.9" transform="translate(-14.8 28.4) rotate(-45)"></rect><rect class="st2" x="28.5" y="15" width="2.7" height="28.9" transform="translate(-11.6 23.2) rotate(-36.1)"></rect><rect class="st2" x="31.9" y="13" width="2.7" height="28.9" transform="translate(-8.8 18.1) rotate(-27.1)"></rect><rect class="st2" x="35.6" y="11.4" width="2.7" height="28.9" transform="translate(-6.2 12.7) rotate(-18)"></rect><rect class="st2" x="39.5" y="10.5" width="2.7" height="28.9" transform="translate(-3.4 6.6) rotate(-8.9)"></rect><rect class="st2" x="43.4" y="10.2" width="2.7" height="28.9"></rect><rect class="st2" x="34.3" y="23.6" width="28.9" height="2.7" transform="translate(16.6 69.3) rotate(-81.1)"></rect><rect class="st2" x="38.2" y="24.5" width="28.9" height="2.7" transform="translate(11.8 67.9) rotate(-72)"></rect><rect class="st2" x="41.9" y="26" width="28.9" height="2.7" transform="translate(6.3 65.1) rotate(-62.9)"></rect><rect class="st2" x="45.3" y="28.1" width="28.9" height="2.7" transform="translate(.7 60.4) rotate(-53.9)"></rect><rect class="st2" x="48.3" y="30.7" width="28.9" height="2.7" transform="translate(-4.3 53.8) rotate(-45)"></rect><rect class="st2" x="50.9" y="33.7" width="28.9" height="2.7" transform="translate(-8.1 45.2) rotate(-36.1)"></rect><rect class="st2" x="53" y="37.1" width="28.9" height="2.7" transform="translate(-10.1 34.9) rotate(-27.1)"></rect></g></g></svg>